<svg xmlns="http://www.w3.org/2000/svg" xmlns:xlink="http://www.w3.org/1999/xlink" version="1.1" x="0px" y="0px" viewBox="0 0 750 500" style="enable-background:new 0 0 750 500;" xml:space="preserve">
<g id="background">
	
</g>
<g id="objects">
	<g>
		<g>
			<path style="fill: rgb(148, 228, 172); opacity: 1; stroke: rgb(148, 228, 172); visibility: visible;" d="M663.252,227.882c-19.559-57.102-75.443-73.952-130.395-73.016     c-52.157,0.936-93.139,4.68-135.982-31.828c-44.707-38.38-88.481-87.058-151.815-89.865     c-59.608-3.745-94.07,40.252-112.697,91.738c-8.383,23.401-14.903,46.805-24.216,70.207     c-7.451,18.722-17.696,37.444-23.285,57.103C74.079,287.829,78.722,305.143,96.334,329c9.438,12.785,27.279,16.77,32.833,16.77     c41.008,1.164,120.025-0.754,223.612,1.851c59.24,1.489,152.066-3.297,257.719-1.851     C664.99,346.516,680.947,279.367,663.252,227.882z" data-index="0"></path>
		</g>
		
			<line style="fill:none;stroke:#31241C;stroke-width:1.5;stroke-linecap:round;stroke-linejoin:round;stroke-miterlimit:10;" x1="123.711" y1="345.77" x2="651.633" y2="345.77"></line>
	</g>
	<g>
		<path style="fill: rgb(196, 100, 20); opacity: 1; stroke: rgb(196, 100, 20);" d="M373.671,205.591c0.184,7.498,0.371,43.351,0.754,52.96c0.23,5.771,0.507,6.897,1.125,9.633    c0.618,2.736,83.973,1.078,85.044-0.198c1.07-1.276,1.861-47.81,2.284-53.071c0.422-5.263,0.593-9.518-0.238-9.748    c-0.832-0.23-11.612-1.717-19.878-1.764c-8.266-0.049-61.438-0.249-64.465-0.176C375.268,203.301,373.634,204.092,373.671,205.591    z" data-index="1"></path>
		<path style="fill: none; stroke: rgb(49, 36, 28); stroke-width: 1.5; stroke-linecap: round; stroke-linejoin: round; stroke-miterlimit: 10; opacity: 1;" d="    M403.68,204.857c-0.398,6.262-0.883,42.784-1.078,46.04c-0.196,3.256-0.539,11.767-0.502,13.267" data-index="2"></path>
		<path style="fill: rgb(84, 132, 100); opacity: 1; stroke: rgb(84, 132, 100);" d="M383.736,203.211c-0.297,4.725-0.596,11.723-0.596,18.729c1.965,1.452,11.506-0.105,11.506-0.105    c0.6-2.854-0.578-14.213-0.455-18.605C390.103,203.218,386.492,203.213,383.736,203.211z" data-index="3"></path>
	</g>
	<g>
		<path style="fill: rgb(68, 51, 112); opacity: 1; stroke: rgb(68, 51, 112); visibility: visible;" d="M362.747,305.184c0.124-7.07,0.345-42.084,1.678-42.417c1.333-0.333,28.667-1,40.333-0.333    c11.667,0.667,33.809,0.431,47.5,1.001c17.5,0.729,25.501,0.665,25.834,2.332c0.333,1.667-3,65.667-2.334,76.667    c0.667,11,0.001,16.999-1.666,17.333c-1.667,0.334-102.334-4.332-105.667-4.666C365.092,354.767,362.413,324.184,362.747,305.184z    " data-index="4"></path>
		
			<line style="fill:none;stroke:#31241C;stroke-width:1.5;stroke-linecap:round;stroke-linejoin:round;stroke-miterlimit:10;" x1="410.675" y1="264.228" x2="408.925" y2="313.684"></line>
	</g>
	<g>
		<path style="fill: rgb(242, 148, 46); opacity: 1; stroke: rgb(242, 148, 46);" d="M272.675,302.184c0,12-4.221,55.203,0.75,90c1.25,8.75,1,8.5,6.25,9.25    c2.274,0.325,30.271,2.332,45.25,1.5c9-0.5,103.04-1.358,108-1.5c8.75-0.25,9.64-3.496,9.5-8.5c-0.5-18,0.75-83.5,0.75-86.25    s-2.5-7-6.25-7s-151.75-1.5-155.75-1.5S272.675,298.934,272.675,302.184z" data-index="5"></path>
		<path style="fill: none; stroke: rgb(49, 36, 28); stroke-width: 1.5; stroke-linecap: round; stroke-linejoin: round; stroke-miterlimit: 10; opacity: 1;" d="    M323.425,305.184c-3.102,60.867,0.75,95.25,0.75,95.25" data-index="6"></path>
		<path style="fill: rgb(84, 132, 100); opacity: 1; stroke: rgb(84, 132, 100);" d="M324.175,298.434c2,4.5,10.25,33,11,35.75s0.5,3.5,4.75,3.5s111-0.5,114.5-0.25s3.5-1.75,2.5-3    s-11.75-31.75-12.75-32.75s-0.25-2.25-4.25-2.5S324.175,298.434,324.175,298.434z" data-index="7"></path>
		<path style="fill: rgb(84, 132, 100); opacity: 1; stroke: rgb(84, 132, 100);" d="M278.675,297.934c-5,0.25-6,0-8.5,3.75s-14.25,24-16,27.25s1.25,3.75,3,3.75    c1.75,0,41.25,2.75,43,2.75s2.5,0.5,4.5-2.25s19.5-34.75,19.5-34.75L278.675,297.934z" data-index="8"></path>
		<g>
			<path style="fill:none;stroke:#31241C;stroke-width:1.5;stroke-linecap:round;stroke-linejoin:round;stroke-miterlimit:10;" d="     M337.21,351.002c0,4.725-1.072,9.453-1.072,13.916" data-index="9"></path>
			<path style="fill:none;stroke:#31241C;stroke-width:1.5;stroke-linecap:round;stroke-linejoin:round;stroke-miterlimit:10;" d="     M337.21,350.214c3.484-0.262,8.575,4.727,8.575,8.14c-0.268,5.515-5.628,6.565-9.915,7.353" data-index="10"></path>
			<path style="fill: none; stroke: rgb(49, 36, 28); stroke-width: 1.5; stroke-linecap: round; stroke-linejoin: round; stroke-miterlimit: 10; opacity: 1;" d="     M356.091,351.13c-2.481-0.857-5.257,3.667-5.522,7.616c-0.53,9.592,8.485,7.898,10.077,0c0.265-2.539,0-5.924-2.122-7.334" data-index="11"></path>
			<path style="fill: none; stroke: rgb(49, 36, 28); stroke-width: 1.5; stroke-linecap: round; stroke-linejoin: round; stroke-miterlimit: 10; opacity: 1;" d="     M367.009,349.719c0,5.078-0.081,10.759-0.795,15.272" data-index="12"></path>
			<path style="fill:none;stroke:#31241C;stroke-width:1.5;stroke-linecap:round;stroke-linejoin:round;stroke-miterlimit:10;" d="     M367.009,355.079c1.591,2.257,3.712,4.231,5.303,6.206" data-index="13"></path>
			<path style="fill:none;stroke:#31241C;stroke-width:1.5;stroke-linecap:round;stroke-linejoin:round;stroke-miterlimit:10;" d="     M374.964,349.719c0,4.465-0.669,12.665-0.79,16.332" data-index="14"></path>
			<path style="fill: none; stroke: rgb(49, 36, 28); stroke-width: 1.5; stroke-linecap: round; stroke-linejoin: round; stroke-miterlimit: 10; opacity: 1;" d="     M382.92,350.565c-0.796,4.796-1.856,9.873-2.387,14.387" data-index="15"></path>
			<path style="fill: none; stroke: rgb(49, 36, 28); stroke-width: 1.5; stroke-linecap: round; stroke-linejoin: round; stroke-miterlimit: 10; opacity: 1;" d="     M383.449,350.565c5.304-2.257,6.633,13.506,7.164,14.353" data-index="16"></path>
			<path style="fill:none;stroke:#31241C;stroke-width:1.5;stroke-linecap:round;stroke-linejoin:round;stroke-miterlimit:10;" d="     M382.124,360.439c1.325-0.846,4.508-0.564,6.364-0.564" data-index="17"></path>
			<path style="fill: none; stroke: rgb(49, 36, 28); stroke-width: 1.5; stroke-linecap: round; stroke-linejoin: round; stroke-miterlimit: 10; opacity: 1;" d="     M397.308,349.979c0.423,4.796-0.476,8.351-0.343,14.038" data-index="18"></path>
			<path style="fill:none;stroke:#31241C;stroke-width:1.5;stroke-linecap:round;stroke-linejoin:round;stroke-miterlimit:10;" d="     M392.2,350.565c2.917-0.847,6.364-0.282,9.28-1.128" data-index="19"></path>
			<path style="fill:none;stroke:#31241C;stroke-width:1.5;stroke-linecap:round;stroke-linejoin:round;stroke-miterlimit:10;" d="     M406.369,351.024c-0.236,4.161,0,9.109-0.436,12.993" data-index="20"></path>
			<path style="fill:none;stroke:#31241C;stroke-width:1.5;stroke-linecap:round;stroke-linejoin:round;stroke-miterlimit:10;" d="     M407.58,345.77" data-index="21"></path>
			<path style="fill: none; stroke: rgb(49, 36, 28); stroke-width: 1.5; stroke-linecap: round; stroke-linejoin: round; stroke-miterlimit: 10; opacity: 1;" d="     M412.883,353.814c-1.325,3.102-1.988,13.063,4.641,10.241c5.039-2.257,1.459-16.165-3.049-12.498" data-index="22"></path>
			<path style="fill: none; stroke: rgb(49, 36, 28); stroke-width: 1.5; stroke-linecap: round; stroke-linejoin: round; stroke-miterlimit: 10; opacity: 1;" d="     M426.492,350.314c-1.061,4.264-0.266,9.136-1.326,13.704" data-index="23"></path>
			<path style="fill: none; stroke: rgb(49, 36, 28); stroke-width: 1.5; stroke-linecap: round; stroke-linejoin: round; stroke-miterlimit: 10; opacity: 1;" d="     M426.492,355.185c2.651,2.133,3.712,5.483,5.833,7.918" data-index="24"></path>
			<path style="fill: none; stroke: rgb(49, 36, 28); stroke-width: 1.5; stroke-linecap: round; stroke-linejoin: round; stroke-miterlimit: 10; opacity: 1;" d="     M433.651,350.618c0,4.567-1.061,9.136-1.061,13.399" data-index="25"></path>
		</g>
	</g>
	<g>
		<path style="fill: rgb(84, 132, 100); opacity: 1; stroke: rgb(84, 132, 100); visibility: visible;" d="M621.426,365.267c6.832-0.333,11.666,3.668,22.166,2.334c10.5-1.334,13.668-0.168,14,2.166    c0.334,2.334-3.334,6-11.166,8.167c-7.834,2.167-30.5,4.834-34.834,1.167C607.258,375.434,612.758,368.267,621.426,365.267z" data-index="26"></path>
		<path style="fill: rgb(84, 132, 100); opacity: 1; stroke: rgb(84, 132, 100); visibility: visible;" d="M473.592,370.434c12,5.667,24,4.167,31.5,3.667s18.583,3.333,16.083,6.583s-60.25,55-68.5,56.5    s-22.25-13.25-23.25-15.5S473.592,370.434,473.592,370.434z" data-index="27"></path>
		<path style="fill: rgb(196, 100, 20); stroke: rgb(196, 100, 20); opacity: 1;" d="M643.592,367.601c-0.941,0.12-1.824,0.184-2.68,0.225c3.873,2.093,8.828,5.127,9.514,8.275    c0.545-0.067,1.051-0.161,1.549-0.259c4-2.01,5.857-4.389,5.617-6.075C657.26,367.433,654.092,366.267,643.592,367.601z" data-index="28"></path>
		<path style="fill: rgb(84, 132, 100); opacity: 1; stroke: rgb(84, 132, 100);" d="M458.425,367.684c-6,4.25-11.25,22.5-26.25,30.25c-15,7.75-29.25,17-36,20.5s-6.5,5.75-3.75,8.5    s16.75,9.75,22,11.5c5.25,1.75,23,8.5,27.5,8.25s19.5-11.75,23-14.5s0.25-3.5-3-4.75s-19.5-11.25-17.75-12.75    s26.5-2.75,29.5-17.75s3.25-29.75,3.5-31.5S458.425,367.684,458.425,367.684z" data-index="29"></path>
		<path style="fill: rgb(196, 100, 20); opacity: 1; stroke: rgb(196, 100, 20);" d="M464.258,347.934c-4.82,9.232-11.333,23.167-9.666,33.001c1.666,9.834,6.334,13.499,9,11.499    c1.666,1.5,2.834,1.333,3.5,0.333c3.666,1.334,3.078-3.497,3-6.833c-0.167-7.167,2.5-9,2.5-9c1,5.833,2.333,9.333,5.166,8.333    c2.834-1-0.333-10.999,2-18.666c2.334-7.667,4-13.167,4.5-15.667S467.258,346.934,464.258,347.934z" data-index="30"></path>
		<path style="fill: none; stroke: rgb(49, 36, 28); stroke-width: 1.5; stroke-linecap: round; stroke-linejoin: round; stroke-miterlimit: 10; opacity: 1;" d="    M459.146,358.625c-3.189,7.535-5.656,15.816-4.555,22.31c1.25,7.376,4.188,11.281,6.703,11.929" data-index="31"></path>
		<path style="fill: rgb(84, 132, 100); opacity: 1; stroke: rgb(84, 132, 100);" d="M625.676,377.184c5.75-3.5,10.25-5.25,21-3.5s15,3,22.5,1.75s17.5,0,11.75,6.25    s-16.5,5.75-25.5,10.75s-21,6.5-21,6.5L625.676,377.184z" data-index="32"></path>
		<path style="fill: rgb(196, 100, 20); opacity: 1; stroke: rgb(196, 100, 20);" d="M669.176,375.434c-1.129,0.189-2.18,0.314-3.195,0.395c5.088,1.191,9.395,3.979,7.678,10.337    c2.816-1.042,5.328-2.375,7.268-4.481C686.676,375.434,676.676,374.184,669.176,375.434z" data-index="33"></path>
		<path style="fill: rgb(196, 100, 20); stroke: rgb(196, 100, 20); opacity: 1;" d="M646.676,373.684c-5.244-0.853-8.998-0.869-12.137-0.261c3.539,6.449,13.865,9.819,17.086,1.097    C650.127,374.262,648.5,373.98,646.676,373.684z" data-index="34"></path>
		<path style="fill: none; stroke: rgb(49, 36, 28); stroke-width: 1.5; stroke-linecap: round; stroke-linejoin: round; stroke-miterlimit: 10; opacity: 1;" d="    M628.426,375.101c3.832-2.334,12.334-3.668,25.834-0.001" data-index="35"></path>
		<path style="fill: rgb(53, 32, 44); opacity: 1; stroke: rgb(53, 32, 44);" d="M548.925,329.684c-8.25,8-39.25,34.25-44,49.75s1.5,48,28,39c16.25,11.25,46.25,9,71.751-1.75    c25.5-10.75,38.75-14.75,40-18s-6.25-30-28.25-24.5c26-15.25,30-48,14.75-61.75C612.676,306.184,548.925,329.684,548.925,329.684z    " data-index="36"></path>
		<path style="fill: none; stroke: rgb(49, 36, 28); stroke-width: 1.5; stroke-linecap: round; stroke-linejoin: round; stroke-miterlimit: 10; opacity: 1;" d="    M531.425,371.184c-6.75,3.5-12.75,13.75-11.75,21.5c1.499,11.613,8,22,13.25,25.75" data-index="37"></path>
		<path style="fill: rgb(68, 51, 112); opacity: 1; stroke: rgb(68, 51, 112); visibility: visible;" d="M506.55,260.684c3.25-7.125,12.75-17.5,30.5-27.125s37.625-5,52.876,7.5    c15.25,12.5,31.5,47.875,45,74.375c-22.25,16-42.75,31.5-88.001,14.75c-1.5-2.5-8.5-25-22-40.25    c-9.75,21-34.091,52.733-37.841,62.733c-0.667,1.333-2.446,5.18-4.833,3.487c-4.583-3.25-11.264-5.241-20.097-4.075    c-1.697,0.224-2.73-1.47-2.147-2.97c6.75-14.75,16.011-30.359,24.261-44.109S498.675,274.934,506.55,260.684z" data-index="38"></path>
		<path style="fill: rgb(84, 132, 100); opacity: 1; stroke: rgb(84, 132, 100);" d="M497.425,369.434c-4.75,5,0.25,21.25-13.5,34.25s-5.75,12.5-34.5,23.25c-12,6.5-28,11.25-25,13.5    s16.5,8.75,26,8.75s35.75-11.5,49.25-25.5c13.5-14,10.583-26.917,28.917-39.917c12.875-9.13,14.333-13.333,13.083-14.083    S505.175,366.434,497.425,369.434z" data-index="39"></path>
		<path style="fill: rgb(196, 100, 20); opacity: 1; stroke: rgb(196, 100, 20);" d="M519.258,354.767c-5.666-0.833-24.666-2.666-18.5,3.334c-9.166,0.166-9.25,4.417-9.25,4.417    c-4.333,1.333-1.333,4.167-1.333,4.167c-2.333,2.75,1,5.75,7.25,4.749c9.58-1.534,19.667-0.667,23.5-1.667    S521.592,355.6,519.258,354.767z" data-index="40"></path>
		<path style="fill: rgb(68, 51, 112); opacity: 1; stroke: rgb(68, 51, 112); visibility: visible;" d="M518.162,350.659c-3.015,4.381-3.654,16.858,0.513,20.524c15.5,2.75,70.501,0.25,72.251-38.25    c-11.751-7.5-33.001-7.434-33.001-7.434c-1.75,12.5-15.889,22.12-34.75,22.75C520.327,348.554,518.843,349.671,518.162,350.659z" data-index="41"></path>
		<path style="fill: rgb(196, 100, 20); opacity: 1; stroke: rgb(196, 100, 20);" d="M521.8,230.559c2.75,3,10.421,12.328,12.625,14.5c8.375,8.25,23.75-7.375,17.375-14.875    s-14.625-15.625-14.625-15.625L521.8,230.559z" data-index="42"></path>
		<path style="fill: rgb(172, 84, 4); opacity: 1; stroke: rgb(172, 84, 4);" d="M537.175,214.559l-15.375,16c1.086,1.185,2.942,3.359,4.923,5.688    c0.831-0.393,1.668-0.85,2.511-1.394c7.149-4.612,10.124-11.124,10.872-17.344C538.328,215.695,537.175,214.559,537.175,214.559z" data-index="43"></path>
		<g>
			<path style="fill: rgb(53, 32, 44); opacity: 1; stroke: rgb(53, 32, 44);" d="M539.8,195.059c1.875,4.25,2,12.75-2,13.25C533.05,200.684,535.175,194.934,539.8,195.059z" data-index="44"></path>
			<path style="fill: rgb(196, 100, 20); opacity: 1; stroke: rgb(196, 100, 20);" d="M506.638,163.567c-12.255,3.089-29.707,13.016-22.171,31.675     c4.725,11.697,11.317,18.908,14.545,24.053c6.346,10.111,17.009,17.615,28.722,10.058c13.306-8.584,12.161-23.748,9.093-31.354     c9.625-2.385,3.696-18.401-4.353-13.805C526.695,167.713,516.136,162.052,506.638,163.567z" data-index="45"></path>
			
				<polyline style="fill:none;stroke:#31241C;stroke-width:1.5;stroke-linecap:round;stroke-linejoin:round;stroke-miterlimit:10;" points="     506.625,202.688 503.389,207.191 510.059,208.017    "></polyline>
			<path style="fill: rgb(53, 32, 44); opacity: 1; stroke: rgb(53, 32, 44);" d="M510.799,200.715c0.626,1.327,2.203,1.896,3.529,1.271c1.329-0.625,1.9-2.207,1.274-3.535     c-0.626-1.327-2.209-1.896-3.538-1.271C510.738,197.807,510.173,199.386,510.799,200.715z" data-index="46"></path>
			<path style="fill: rgb(53, 32, 44); opacity: 1; stroke: rgb(53, 32, 44);" d="M495.313,208.973c0.624,1.323,2.206,1.896,3.535,1.27c1.326-0.625,1.895-2.21,1.27-3.536     c-0.623-1.324-2.207-1.893-3.533-1.268C495.256,206.064,494.689,207.646,495.313,208.973z" data-index="47"></path>
			<path style="fill: none; stroke: rgb(49, 36, 28); stroke-width: 1.5; stroke-linecap: round; stroke-linejoin: round; stroke-miterlimit: 10; opacity: 1;" d="     M513.027,187.436c-1.936-0.973-6.127-0.744-8.172,0.623" data-index="48"></path>
			<path style="fill: none; stroke: rgb(49, 36, 28); stroke-width: 1.5; stroke-linecap: round; stroke-linejoin: round; stroke-miterlimit: 10; opacity: 1;" d="     M491.727,194.274c-1.319,0.624-3.325,2.407-3.758,4.815" data-index="49"></path>
			
				<line style="fill:none;stroke:#31241C;stroke-width:1.5;stroke-linecap:round;stroke-linejoin:round;stroke-miterlimit:10;" x1="513.543" y1="197.943" x2="515.043" y2="194.274"></line>
			
				<line style="fill:none;stroke:#31241C;stroke-width:1.5;stroke-linecap:round;stroke-linejoin:round;stroke-miterlimit:10;" x1="492.449" y1="206.319" x2="495.956" y2="207.488"></line>
			<path style="fill: none; stroke: rgb(49, 36, 28); stroke-width: 1.5; stroke-linecap: round; stroke-linejoin: round; stroke-miterlimit: 10; opacity: 1;" d="     M514.266,206.307c1.127,4.771-1.065,9.17-5.324,7.139" data-index="50"></path>
		</g>
		<path style="fill: rgb(53, 32, 44); opacity: 1; stroke: rgb(53, 32, 44);" d="M482.592,192.434c2.166-0.167,2.166-4.833,2.666-8.833c7.167,4.833,17-2.5,23.292-11.792    c3.833,8.167,8.792,10.333,14.625,13.5c5.833,3.167,6.417,7.292,8.75,6.792s0.333-7,0.333-7s2-1.834,3.5-1.667    c-1.833-11.167-12.5-27.833-32.833-21.667C484.781,167.269,478.426,183.267,482.592,192.434z" data-index="51"></path>
		<path style="fill: rgb(53, 32, 44); opacity: 1; stroke: rgb(53, 32, 44);" d="M513.924,164.267c-15.279-2.23-14.701-14.729-10.166-20c6.166-7.167,24.666-3.93,24.666,7.833    C528.424,159.1,521.924,165.434,513.924,164.267z" data-index="52"></path>
		<path style="fill: none; stroke: rgb(49, 36, 28); stroke-width: 1.5; stroke-linecap: round; stroke-linejoin: round; stroke-miterlimit: 10; opacity: 1;" d="    M531.8,190.434c0.125,8.625-10.375,11.625-3.375,21.5s11,15.75,3.5,20.125" data-index="53"></path>
		<path style="fill: none; stroke: rgb(49, 36, 28); stroke-width: 1.5; stroke-linecap: round; stroke-linejoin: round; stroke-miterlimit: 10; opacity: 1;" d="    M493.675,210.309c-4,5-4.375,12.25-2.5,16.75s2.125,11.75-1.875,14.5s-3.625,4.25-3.625,4.25" data-index="54"></path>
		<path style="fill:none;stroke:#31241C;stroke-width:1.5;stroke-linecap:round;stroke-linejoin:round;stroke-miterlimit:10;" d="    M498.55,358.059c3-0.25,7.75-0.25,9.25,0.125" data-index="55"></path>
		<path style="fill: none; stroke: rgb(49, 36, 28); stroke-width: 1.5; stroke-linecap: round; stroke-linejoin: round; stroke-miterlimit: 10; opacity: 1;" d="    M490.8,362.684c2.875-1,9.5-1.5,12.5-1.125" data-index="56"></path>
		<path style="fill: none; stroke: rgb(49, 36, 28); stroke-width: 1.5; stroke-linecap: round; stroke-linejoin: round; stroke-miterlimit: 10; opacity: 1;" d="    M490.175,366.685c1.625-0.751,9.75-1.376,11.25-1.251" data-index="57"></path>
		<path style="fill: none; stroke: rgb(49, 36, 28); stroke-width: 1.5; stroke-linecap: round; stroke-linejoin: round; stroke-miterlimit: 10; opacity: 1;" d="    M464.425,376.559c-0.75,3-1.166,13.666,2.667,16.208" data-index="58"></path>
		<path style="fill: none; stroke: rgb(49, 36, 28); stroke-width: 1.5; stroke-linecap: round; stroke-linejoin: round; stroke-miterlimit: 10; opacity: 1;" d="    M460.05,378.059c-0.25,2.125,0.584,11.625,3.542,14.375" data-index="59"></path>
		<path style="fill: none; stroke: rgb(49, 36, 28); stroke-width: 1.5; stroke-linecap: round; stroke-linejoin: round; stroke-miterlimit: 10; opacity: 1;" d="    M556.592,289.934c-0.758,21.442,12.742,40.899-15.347,54.235" data-index="60"></path>
		<path style="fill: none; stroke: rgb(49, 36, 28); stroke-width: 1.5; stroke-linecap: round; stroke-linejoin: round; stroke-miterlimit: 10; opacity: 1;" d="    M592.592,268.767c1.334,4.167,2.334,50.5-2.166,69.167" data-index="61"></path>
		<path style="fill: none; stroke: rgb(49, 36, 28); stroke-width: 1.5; stroke-linecap: round; stroke-linejoin: round; stroke-miterlimit: 10; opacity: 1;" d="    M518.758,274.767c1.167,5.167,4.001,12.166,8.834,18" data-index="62"></path>
		<path style="fill: none; stroke: rgb(49, 36, 28); stroke-width: 1.5; stroke-linecap: round; stroke-linejoin: round; stroke-miterlimit: 10; opacity: 1;" d="    M530.953,249.5c5,4.5,24.06,5.268,28.227-14.899" data-index="63"></path>
		<path style="fill: none; stroke: rgb(49, 36, 28); stroke-width: 1.5; stroke-linecap: round; stroke-linejoin: round; stroke-miterlimit: 10; opacity: 1;" d="    M575.175,393.184c7.25-3.5,35.251-15.25,45.001-21.5" data-index="64"></path>
		<path style="fill: none; stroke: rgb(49, 36, 28); stroke-width: 1.5; stroke-linecap: round; stroke-linejoin: round; stroke-miterlimit: 10; opacity: 1;" d="    M582.676,389.934c0,1.75-6.001,6.5-7.501,8.25" data-index="65"></path>
		<path style="fill: none; stroke: rgb(49, 36, 28); stroke-width: 1.5; stroke-linecap: round; stroke-linejoin: round; stroke-miterlimit: 10; opacity: 1;" d="    M414.425,438.434c5.25,1.75,23,8.5,27.5,8.25s19.5-11.75,23-14.5s0.25-3.5-3-4.75s-19.5-11.25-17.75-12.75s26.5-2.75,29.5-17.75    c0.808-4.039,1.454-6.246,1.917-10" data-index="66"></path>
		<path style="fill: none; stroke: rgb(49, 36, 28); stroke-width: 1.5; stroke-linecap: round; stroke-linejoin: round; stroke-miterlimit: 10; opacity: 1;" d="    M463.928,342.5c2.906-1.167,14.961-3.142,23.239,6.609" data-index="67"></path>
		<path style="fill: none; stroke: rgb(49, 36, 28); stroke-width: 1.5; stroke-linecap: round; stroke-linejoin: round; stroke-miterlimit: 10; opacity: 1;" d="    M529.698,349.665c-2.834,4.891-4.515,12.535-0.439,20.769" data-index="68"></path>
		<path style="fill: none; stroke: rgb(49, 36, 28); stroke-width: 1.5; stroke-linecap: round; stroke-linejoin: round; stroke-miterlimit: 10; opacity: 1;" d="    M518.162,364.585c2.838-0.604,8.78-1.21,8.78-1.21" data-index="69"></path>
		<path style="fill: none; stroke: rgb(49, 36, 28); stroke-width: 1.5; stroke-linecap: round; stroke-linejoin: round; stroke-miterlimit: 10; opacity: 1;" d="    M519.565,360.654c3.149-0.809,6.935-0.886,6.935-0.886" data-index="70"></path>
		<path style="fill: none; stroke: rgb(49, 36, 28); stroke-width: 1.5; stroke-linecap: round; stroke-linejoin: round; stroke-miterlimit: 10; opacity: 1;" d="    M470.373,341.508c-1.623,1.867-2.984,7.214-2.373,8.742" data-index="71"></path>
		<path style="fill: none; stroke: rgb(49, 36, 28); stroke-width: 1.5; stroke-linecap: round; stroke-linejoin: round; stroke-miterlimit: 10; opacity: 1;" d="    M474.032,341.785c-1.157,1.715-2.407,6.955-2.407,6.955" data-index="72"></path>
		<path style="fill:none;stroke:#31241C;stroke-width:1.5;stroke-linecap:round;stroke-linejoin:round;stroke-miterlimit:10;" d="    M521.534,368.138c1.216,0.112,5.915,0.474,6.69-0.145" data-index="73"></path>
		<path style="fill: none; stroke: rgb(49, 36, 28); stroke-width: 1.5; stroke-linecap: round; stroke-linejoin: round; stroke-miterlimit: 10; opacity: 1;" d="    M531.875,244.625c4.125,3.375,17.75,6.74,22.625-12.192" data-index="74"></path>
		<path style="fill: none; stroke: rgb(49, 36, 28); stroke-width: 1.5; stroke-linecap: round; stroke-linejoin: round; stroke-miterlimit: 10; opacity: 1;" d="    M535.119,246.39c-0.994,1.11-1.878,4.504-1.878,4.504" data-index="75"></path>
		<path style="fill: none; stroke: rgb(49, 36, 28); stroke-width: 1.5; stroke-linecap: round; stroke-linejoin: round; stroke-miterlimit: 10; opacity: 1;" d="    M538.09,247.247c-0.715,1.128-2.131,4.492-2.131,4.492" data-index="76"></path>
		<path style="fill: none; stroke: rgb(49, 36, 28); stroke-width: 1.5; stroke-linecap: round; stroke-linejoin: round; stroke-miterlimit: 10; opacity: 1;" d="    M547.385,244.753c0.115,1.497,1.24,2.646,1.24,2.646" data-index="77"></path>
		<path style="fill: none; stroke: rgb(49, 36, 28); stroke-width: 1.5; stroke-linecap: round; stroke-linejoin: round; stroke-miterlimit: 10; opacity: 1;" d="    M549.902,242.295c1.473,1.205,3.405,4.095,3.405,4.095" data-index="78"></path>
	</g>
	<g>
		<path style="fill: rgb(68, 51, 112); opacity: 1; stroke: rgb(68, 51, 112); visibility: visible;" d="M132.758,368.601c-0.167-2.833-4.001-7-13.334-2.5s-17,7.5-25,9.167    c-8,1.667-18.666,5.167-17.833,10.167C91.925,387.601,130.758,375.934,132.758,368.601z" data-index="79"></path>
		<path style="fill: rgb(196, 100, 20); stroke: rgb(196, 100, 20);" d="M146.092,371.101c-5.167,1.334-7.833,2.168-11-0.666c-3.167-2.834-8.834-2.501-16.667,2.166    c-5,5.667,0.834,11,7.333,11.167C132.258,383.935,145.425,383.267,146.092,371.101z" data-index="80"></path>
		<path style="fill: rgb(242, 148, 46); opacity: 1; stroke: rgb(242, 148, 46);" d="M297.925,278.434c4.5,3,35.5,6.832,32.167-5.334c-5.333-3.166-35.667-3.832-36.833-1.499    C292.092,273.934,297.925,278.434,297.925,278.434z" data-index="81"></path>
		<path style="fill: none; stroke: rgb(49, 36, 28); stroke-width: 1.5; stroke-linecap: round; stroke-linejoin: round; stroke-miterlimit: 10; opacity: 1;" d="    M313.425,272.434c2.833,1.167,3.833,6.833-2.5,7.333" data-index="82"></path>
		<path style="fill:none;stroke:#31241C;stroke-width:1.5;stroke-linecap:round;stroke-linejoin:round;stroke-miterlimit:10;" d="    M321.425,272.267c1.667,0.5,1.5,6.5-3.167,7.667" data-index="83"></path>
		<path style="fill: rgb(53, 32, 44); stroke: rgb(53, 32, 44);" d="M173.147,124.921c-1.723,9.263,3.521,12.138,7.396,11.888c1.25-8-1.25-10.75-1.25-10.75    L173.147,124.921z" data-index="84"></path>
		<path style="fill: rgb(84, 132, 100); opacity: 1; stroke: rgb(84, 132, 100);" d="M209.109,167.059c7.5,0.75,33.565,11.625,37.815,32.625s0.75,45.5,22.25,49    c7.29,1.187-4.5,18.75-4.5,18.75s-33.5,9-39.5-7.75S209.109,167.059,209.109,167.059z" data-index="85"></path>
		<path style="fill: rgb(68, 51, 112); opacity: 1; stroke: rgb(68, 51, 112); visibility: visible;" d="M249.592,261.768c-1.157-6.938-1.333-17,26.667-18s57.667,3.333,63.167,3.833    s18,6.334,13.167,16.334c2.5,3.5,1.999,7.666-5.667,7.833c-7.667,0.167-19,2.501-25.667,1.667c-6.667-0.834-20.5-1.501-29.5-0.834    c-9,0.667-24.667,0.666-33.333-3.5C249.758,264.935,249.925,263.768,249.592,261.768z" data-index="86"></path>
		<path style="fill: rgb(68, 51, 112); opacity: 1; stroke: rgb(68, 51, 112); visibility: visible;" d="M74.758,386.101c7.5-3.333,38.999-13.833,42.166-14.333s8.334,1.667,5.667,6.5    c-2.667,4.833-42.833,14.334-47.333,15.167S74.758,386.101,74.758,386.101z" data-index="87"></path>
		<path style="fill: rgb(242, 148, 46); opacity: 1; stroke: rgb(242, 148, 46);" d="M126.092,380.268c-4-2.667-4.667-6.334-16.833-0.667c-12.167,5.667-36.833,12.666-40.667,14.5    c-3.833,1.834,6.333,9,12.167,9.667c5.833,0.667,35.166,1.5,43.166,0S126.092,380.268,126.092,380.268z" data-index="88"></path>
		<path style="fill: rgb(68, 51, 112); opacity: 1; stroke: rgb(68, 51, 112); visibility: visible;" d="M89.592,380.935c-3.5,3.5-4.042,21.749,7.458,23.249c2.667,0.334,6.25,0.375,6.25,0.375    c-0.833,2-3.542,3.208-11.875,3.542c-8.333,0.334-26.667,0.666-30-8.5c-3.333-9.166,6.833-11,12.833-13.5    S89.592,380.935,89.592,380.935z" data-index="89"></path>
		<path style="fill: rgb(148, 228, 172); opacity: 1; stroke: rgb(148, 228, 172);" d="M146.758,301.767c0,12.667,1.999,28.001,11.333,43.334c9.333,15.333,12.333,24.666,12.333,24.666    c-14.666-1.666-25.333-3.999-27.666,6.334c-8.334-2.334-12.334-0.334-17.667,3.333c-5.333,3.667-14.667,24.999,7,32.333    c17.333,4.334,43.002,5,64.001,3.667s26.999-11.001,28.666-14.667c15,8.334,36.667,1.666,38-15.667    c1.333-17.333-21.584-74.083-25.584-88.416C210.508,295.017,146.758,301.767,146.758,301.767z" data-index="90"></path>
		<path style="fill:none;stroke:#31241C;stroke-width:1.5;stroke-linecap:round;stroke-linejoin:round;stroke-miterlimit:10;" d="    M141.675,376.184c6.5,2,32.244,1.277,32.244,1.277" data-index="91"></path>
		<path style="fill:none;stroke:#31241C;stroke-width:1.5;stroke-linecap:round;stroke-linejoin:round;stroke-miterlimit:10;" d="    M169.675,367.684c2.5,5,7.5,17.75,8.25,20.75s-2.175,5.522-3.994,11.006c-0.325,0.978-2.277-1.288,1.244-10.006" data-index="92"></path>
		<path style="fill:none;stroke:#31241C;stroke-width:1.5;stroke-linecap:round;stroke-linejoin:round;stroke-miterlimit:10;" d="    M125.925,387.684c3.75,1,40.5,2.5,44.25,3" data-index="93"></path>
		<path style="fill: none; stroke: rgb(49, 36, 28); stroke-width: 1.5; stroke-linecap: round; stroke-linejoin: round; stroke-miterlimit: 10; opacity: 1;" d="    M181.925,390.434c2-0.25,4.158-1.783,3.5-4.5c-9-37.167-25.666-57.833-25.75-82.5" data-index="94"></path>
		<path style="fill:none;stroke:#31241C;stroke-width:1.5;stroke-linecap:round;stroke-linejoin:round;stroke-miterlimit:10;" d="    M167.175,330.184c6.25,1.5,25.25,2.5,11.25-26.25" data-index="95"></path>
		<path style="fill: none; stroke: rgb(49, 36, 28); stroke-width: 1.5; stroke-linecap: round; stroke-linejoin: round; stroke-miterlimit: 10; opacity: 1;" d="    M201.985,302.628c2.702,4.616,8.915,23.327,9.725,23.327c0.811,0,5.403-0.73,5.403-0.73l-7.564-23.813" data-index="96"></path>
		<path style="fill: none; stroke: rgb(49, 36, 28); stroke-width: 1.5; stroke-linecap: round; stroke-linejoin: round; stroke-miterlimit: 10; opacity: 1;" d="    M221.175,331.934c-2.25,1-8,3.25-8,3.25s4.25,23.25,8.25,35s7,27.75,1.75,33.5" data-index="97"></path>
		<path style="fill: none; stroke: rgb(49, 36, 28); stroke-width: 1.5; stroke-linecap: round; stroke-linejoin: round; stroke-miterlimit: 10; opacity: 1;" d="    M224.842,302.07c2.893,7.007,8.01,17.624,11.125,19.959c3.115,2.336,9.79,0.85,9.79,0.85" data-index="98"></path>
		<path style="fill: rgb(84, 132, 100); opacity: 1; stroke: rgb(84, 132, 100);" d="M180.425,161.434c-6-0.25-9.5,1.25-12.125,3.625c-35.875,10.875-35.875,39.875-32.125,65.625    c3.072,21.095,4.917,46.249,5.084,51.083c0.166,4.834,0.833,15.501,0.833,16.834c0,1.333-0.167,4.5,6.333,5    s30.75,1.167,51.75,0.333c21-0.834,37.084-5.75,38.75-6.25c1.667-0.5,0.833-5.416,0-7.083c-0.833-1.667-3.333-25.666-3-33    c0.334-7.334,2.833-37.835-1.333-58.168s-8.042-25.208-14.042-28.374c-3.17-1.673-8.833-3.368-16.125-5.25    C199.175,160.059,189.701,160.648,180.425,161.434z" data-index="99"></path>
		<path style="fill: rgb(242, 148, 46); stroke: rgb(242, 148, 46);" d="M202.419,151.259c-1.082,3.923-3.271,14.736-4.245,17.675c-3.701,11.158-24.897,5.23-22.637-4.35    c2.262-9.58,5.907-20.57,5.907-20.57L202.419,151.259z" data-index="100"></path>
		<path style="fill: rgb(196, 100, 20); stroke: rgb(196, 100, 20);" d="M181.445,144.014l20.974,7.245c-0.427,1.549-1.09,4.33-1.793,7.305    c-0.919,0.029-1.872,0.003-2.87-0.098c-8.466-0.852-14.079-5.295-17.577-10.491C180.936,145.551,181.445,144.014,181.445,144.014z    " data-index="101"></path>
		<path style="fill: rgb(242, 148, 46); stroke: rgb(242, 148, 46); opacity: 1;" d="M195.522,86.037c12.601-0.979,32.307,2.866,31.112,22.955c-0.749,12.594-4.7,21.528-6.12,27.434    c-2.79,11.607-10.504,22.118-24.016,18.689c-15.349-3.896-19.099-18.633-18.612-26.821c-9.885,0.808-9.372-16.263-0.277-14.472    C179.753,96.582,186.036,87.628,195.522,86.037z" data-index="102"></path>
		
			<polyline style="fill:none;stroke:#31241C;stroke-width:1.5;stroke-linecap:round;stroke-linejoin:round;stroke-miterlimit:10;" points="    208.004,123.111 212.508,126.35 206.449,129.258   "></polyline>
		<path style="fill: rgb(53, 32, 44); stroke: rgb(53, 32, 44);" d="M203.42,122.571c-0.17,1.458-1.484,2.499-2.939,2.332c-1.46-0.169-2.505-1.486-2.336-2.944    c0.17-1.459,1.49-2.502,2.948-2.332C202.55,119.797,203.59,121.113,203.42,122.571z" data-index="103"></path>
		<path style="fill: rgb(53, 32, 44); stroke: rgb(53, 32, 44);" d="M220.729,125.463c-0.169,1.454-1.485,2.502-2.945,2.332c-1.456-0.17-2.5-1.49-2.331-2.947    c0.169-1.453,1.487-2.497,2.944-2.328C219.857,122.688,220.899,124.007,220.729,125.463z" data-index="104"></path>
		<path style="fill:none;stroke:#31241C;stroke-width:3;stroke-linecap:round;stroke-linejoin:round;stroke-miterlimit:10;" d="    M197.076,110.696c1.524-1.539,5.569-2.658,7.943-2.014" data-index="105"></path>
		<path style="fill:none;stroke:#31241C;stroke-width:3;stroke-linecap:round;stroke-linejoin:round;stroke-miterlimit:10;" d="    M219.443,110.389c1.45,0.17,3.919,1.223,5.097,3.367" data-index="106"></path>
		<path style="fill:none;stroke:#31241C;stroke-width:1.5;stroke-linecap:round;stroke-linejoin:round;stroke-miterlimit:10;" d="    M201.917,128.977c0.452,4.883,3.932,8.354,7.321,5.071" data-index="107"></path>
		<path style="fill: rgb(242, 148, 46); opacity: 1; stroke: rgb(242, 148, 46);" d="M297.625,277.34c3.247-1.945-0.185-6.628-6.284-6.499c-6.099,0.124-10.999-0.94-10.999-0.94    c6.634-2.575,7.41-7.709,3.035-8.833c-4.374-1.122-12.909,3.52-19.301,3.411c-2.529-0.043-11.671,0.149-22.318-0.025v24.832    c7.232-0.234,15.516-0.625,25.13-1.187c12.136,1.614,28.945,2.194,30.723-5.972C300.48,279.158,297.625,277.34,297.625,277.34z" data-index="108"></path>
		<path style="fill:none;stroke:#31241C;stroke-width:1.5;stroke-linecap:round;stroke-linejoin:round;stroke-miterlimit:10;" d="    M281.361,277.497c2.472,0.73,11.902,1.31,16.879-0.623" data-index="109"></path>
		<path style="fill:none;stroke:#31241C;stroke-width:1.5;stroke-linecap:round;stroke-linejoin:round;stroke-miterlimit:10;" d="    M281.168,283.102c2.274,0.751,12.081,1.092,16.443-0.975" data-index="110"></path>
		<path style="fill: rgb(84, 132, 100); stroke: rgb(84, 132, 100); opacity: 1;" d="M220.758,261.601c4.666,0.333,33.041-2.292,34.041,2.333c0.667,1.666-5.125,3.25-5.208,11.334    c-0.071,6.835,2.334,12.999,5.667,13.499s2.166,3.001-5.167,3.334c-7.333,0.333-28.667-0.166-31-1    C216.758,290.267,220.758,261.601,220.758,261.601z" data-index="111"></path>
		<path style="fill: none; stroke: rgb(49, 36, 28); stroke-width: 1.5; stroke-linecap: round; stroke-linejoin: round; stroke-miterlimit: 10; opacity: 1;" d="    M172.925,203.434c4.375,8.75,10,46.5,15.75,51.5s42,6.375,51.25,6.25s15.625,1.5,14.875,3.625    c-7.75,4.375-6.75,24.125,2.125,24.25" data-index="112"></path>
		<path style="fill: none; stroke: rgb(49, 36, 28); stroke-width: 1.5; stroke-linecap: round; stroke-linejoin: round; stroke-miterlimit: 10; opacity: 1;" d="    M233.3,203.934c1,7.5,2.75,52.375,2.75,56.75" data-index="113"></path>
		<path style="fill: none; stroke: rgb(49, 36, 28); stroke-width: 1.5; stroke-linecap: round; stroke-linejoin: round; stroke-miterlimit: 10; opacity: 1;" d="    M147.3,246.434c2.5,6.75,12.75,32.375,20.875,37.5s58.417,9.203,73.584,7.477c12.166,2.398,14.917-0.102,15.167-1.477" data-index="114"></path>
		<path style="fill: none; stroke: rgb(49, 36, 28); stroke-width: 1.5; stroke-linecap: round; stroke-linejoin: round; stroke-miterlimit: 10; opacity: 1;" d="    M243.925,261.684c-3,1.5-12.875,13.5-2.375,29.625" data-index="115"></path>
		<path style="fill:none;stroke:#31241C;stroke-width:1.5;stroke-linecap:round;stroke-linejoin:round;stroke-miterlimit:10;" d="    M240.175,266.059c3.5-0.375,9.375,0.125,10.125,1.25" data-index="116"></path>
		<path style="fill:none;stroke:#31241C;stroke-width:1.5;stroke-linecap:round;stroke-linejoin:round;stroke-miterlimit:10;" d="    M238.425,269.309c4-0.125,8.75,0.625,8.75,0.625" data-index="117"></path>
		<path style="fill:none;stroke:#31241C;stroke-width:1.5;stroke-linecap:round;stroke-linejoin:round;stroke-miterlimit:10;" d="    M169.675,168.434c1.75,8.375,13.5,16.75,24.75,14.25s9.875-12.875,9.875-12.875" data-index="118"></path>
		<path style="fill:none;stroke:#31241C;stroke-width:1.5;stroke-linecap:round;stroke-linejoin:round;stroke-miterlimit:10;" d="    M174.925,167.059c2,6.25,18.25,14.875,25.125,1.125" data-index="119"></path>
		<path style="fill:none;stroke:#31241C;stroke-width:1.5;stroke-linecap:round;stroke-linejoin:round;stroke-miterlimit:10;" d="    M179.05,171.809c-0.625,2.5-2.25,6.5-2.25,6.5" data-index="120"></path>
		<path style="fill:none;stroke:#31241C;stroke-width:1.5;stroke-linecap:round;stroke-linejoin:round;stroke-miterlimit:10;" d="    M182.675,174.309c-0.125,2.25-1.75,5.875-1.75,5.875" data-index="121"></path>
		
			<line style="fill:none;stroke:#31241C;stroke-width:1.5;stroke-linecap:round;stroke-linejoin:round;stroke-miterlimit:10;" x1="187.3" y1="175.684" x2="187.8" y2="180.559"></line>
		<path style="fill:none;stroke:#31241C;stroke-width:1.5;stroke-linecap:round;stroke-linejoin:round;stroke-miterlimit:10;" d="    M190.55,175.934c0.5,1.5,1.25,4.375,1.25,4.375" data-index="122"></path>
		<path style="fill:none;stroke:#31241C;stroke-width:1.5;stroke-linecap:round;stroke-linejoin:round;stroke-miterlimit:10;" d="    M197.925,171.809c2,0.5,4.5,2.625,4.5,2.625" data-index="123"></path>
		<path style="fill: rgb(53, 32, 44); stroke: rgb(53, 32, 44); opacity: 1;" d="M173.827,114.315c7.066-0.56,5.223,7.949,6.466,8.618c2.778,1.495,4.75,0.125,5.625-4    s4.75-7.625,6-13.125s1.25-11.5,1.25-11.5c6.375-2.125,11,2.5,18.5,6.25s20,6.125,18.875-2.375c9-2.375,5-12-4.75-12    c6.625-4.625,1-13.75-12.875-8.125c-6.912,2.802-25.875-5.625-29.625,9.875c-7.375-1.625-9.978,7.038-10.125,12.625    C172.918,110.059,173.827,114.315,173.827,114.315z" data-index="124"></path>
		<path style="fill: none; stroke: rgb(49, 36, 28); stroke-width: 1.5; stroke-linecap: round; stroke-linejoin: round; stroke-miterlimit: 10; opacity: 1;" d="    M352.592,263.935c-4.333-3.168-8.5-1.667-19-0.834c-10.5,0.833-31.667,0-38.333,1s-8.667-4.166-0.667-5.333    c8-1.167,15,2.832,28.667,1.499s24.167-1.5,24.167-1.5" data-index="125"></path>
		<path style="fill: none; stroke: rgb(49, 36, 28); stroke-width: 1.5; stroke-linecap: round; stroke-linejoin: round; stroke-miterlimit: 10; opacity: 1;" d="    M350.258,254.267c-7.333-3.833-23.667,1.333-37.667-1.5c-14-2.833-35.667-4.334-40,4.333" data-index="126"></path>
		<path style="fill:none;stroke:#31241C;stroke-width:1.5;stroke-linecap:round;stroke-linejoin:round;stroke-miterlimit:10;" d="    M141.425,289.767c3,0.667,11,2.333,19.667,2" data-index="127"></path>
	</g>
	<g>
		<path style="fill: rgb(68, 51, 112); opacity: 1; visibility: visible; stroke: rgb(68, 51, 112);" d="M189.674,425.785c6.667-4.666,24.916-4.288,38.583-8.288c13.667-4,32.75-7.838,37.75-7.171    s26,21.125,34,21.459c11-3,17-12.666,20-12.666c9.333,1.666,22,9.332,27.667,10.666c5.667,1.334,8,4,8,4    c-8,14.667-13,26.666-21,29c-8,2.334-6.333,2.668-11.667,3.334c-5.333,0.666-36.667,9.332-42.667,12.666    c-6,3.334-12.667,6.666-26.667,7c-14,0.334-32.417,1-36.417,2.333c-6-6.667-9.625-14.875-20.125-24.75    c-0.625-2.375,28.25-4.625,28.25-4.625c-4.042-3.792-14.708-7.624-20.375-14.624S188.007,428.118,189.674,425.785z" data-index="128"></path>
		<path style="stroke-width: 1.5; stroke-linecap: round; stroke-linejoin: round; stroke-miterlimit: 10; opacity: 1; visibility: visible;" d="    M280.341,478.785c-1.833-6.834-3.167-14.999,11.667-19.333c14.833-4.334,28.5,2.665,33.167,5.999" data-index="129"></path>
		<path style="stroke-width: 1.5; stroke-linecap: round; stroke-linejoin: round; stroke-miterlimit: 10; opacity: 1; visibility: visible;" d="    M275.508,464.785c2.833-5.334,13-13.334,26.667-12.667" data-index="130"></path>
		<path style="fill:none;stroke:#31241C;stroke-width:1.5;stroke-linecap:round;stroke-linejoin:round;stroke-miterlimit:10;" d="    M224.508,457.951c2,2.167,11.5,6.167,11.5,6.167" data-index="131"></path>
		<path style="fill: none; stroke: rgb(49, 36, 28); stroke-width: 1.5; stroke-linecap: round; stroke-linejoin: round; stroke-miterlimit: 10; opacity: 1;" d="    M299.174,431.618c3.5,1.333,17.167,6,19,7" data-index="132"></path>
	</g>
	<g>
		<defs>
			<rect id="SVGID_1_" x="0.001" width="749.999" height="500"></rect>
		</defs>
		<clipPath id="SVGID_00000069362972961270380790000001532862674351844531_">
			<use xlink:href="#SVGID_1_" style="overflow:visible;"></use>
		</clipPath>
		<g style="clip-path:url(#SVGID_00000069362972961270380790000001532862674351844531_);">
			<path style="fill: rgb(68, 51, 112); opacity: 1; stroke: rgb(68, 51, 112); visibility: visible;" d="M94.303,327.448c7.536,3.563,13.188,7.311,11.115,16.495c-2.072,9.186-5.652,11.621-22.795,16.684     c-17.143,5.06-27.505,11.996-32.968,14.245c-5.463,2.248-13.187-3.373-25.433-5.812c-12.245-2.436-28.069-4.31-32.591-9.559     c-4.521-5.247,51.996-35.426,66.125-34.863C71.885,325.199,94.303,327.448,94.303,327.448z" data-index="133"></path>
			<path style="fill: none; stroke: rgb(49, 36, 28); stroke-width: 1.5; stroke-linecap: round; stroke-linejoin: round; stroke-miterlimit: 10; opacity: 1;" d="     M21.962,356.877c7.159-0.562,15.824,4.123,18.65,5.248c2.826,1.124,2.072-2.435,10.173-6.372     c8.101-3.938,22.23-7.122,28.635-12.56c6.405-5.436,15.447-8.435,16.578-1.874" data-index="134"></path>
			
			<path style="fill: rgb(84, 132, 100); opacity: 1; stroke: rgb(84, 132, 100); visibility: hidden;" d="M-27.207,280.773c13.563,1.125,24.867-9.747,37.3-14.62c12.434-4.873,18.839-7.123,24.49,2.999     c5.652,10.123,16.579,25.12,22.983,28.117c6.405,2.998,21.476,8.998,21.1,12.746c-0.376,3.748-1.506,2.624-8.289,3.748     c-6.782,1.126-17.333,4.499-24.491,7.498c-7.158,3-15.824,2.623-25.62,0c-14.317,5.998-38.431,16.119-51.618,9.373" data-index="136"></path>
			
			<path style="fill: none; stroke: rgb(49, 36, 28); stroke-width: 1.5; stroke-linecap: round; stroke-linejoin: round; stroke-miterlimit: 10; opacity: 1; visibility: hidden;" d="     M4.62,284.467c4.281,1.943,17.176,7.615,19.103-9.235" data-index="138"></path>
			
			<ellipse style="fill:#31241C;" cx="-15.859" cy="285.305" rx="1.605" ry="1.621"></ellipse>
			<path style="fill: rgb(53, 32, 44); stroke: rgb(53, 32, 44);" d="M-5.07,295.85c0,0.894-0.719,1.619-1.605,1.619c-0.887,0-1.605-0.726-1.605-1.619     c0-0.895,0.719-1.622,1.605-1.622C-5.789,294.228-5.07,294.955-5.07,295.85z" data-index="140"></path>
			
			<path style="fill: rgb(53, 32, 44); stroke: rgb(53, 32, 44); opacity: 1; visibility: hidden;" d="M24.318,311.734c0,0.896-0.718,1.621-1.605,1.621s-1.605-0.726-1.605-1.621     c0-0.894,0.719-1.62,1.605-1.62S24.318,310.841,24.318,311.734z" data-index="142"></path>
			
			<path style="fill: none; stroke: rgb(49, 36, 28); stroke-width: 1.5; stroke-linecap: round; stroke-linejoin: round; stroke-miterlimit: 10; opacity: 1; visibility: hidden;" d="     M-25.889,282.742c6.729,1.545,11.303,18.697,22.748,23.056c11.444,4.356,24.915,7.03,22.842,12.84" data-index="144"></path>
			<path style="fill: none; stroke: rgb(49, 36, 28); stroke-width: 1.5; stroke-linecap: round; stroke-linejoin: round; stroke-miterlimit: 10; opacity: 1; visibility: visible;" d="     M7.505,356.233c15,1.017,29.245-6.223,51.475-28.483c9.355-9.367,31.77-0.5,40.77-0.295" data-index="145"></path>
		</g>
		<g style="clip-path:url(#SVGID_00000069362972961270380790000001532862674351844531_);">
			
			<path style="fill: rgb(84, 132, 100); stroke: rgb(84, 132, 100); opacity: 1; visibility: hidden;" d="M770.57,278.69c-11.156-3.438-28.297-8.198-42.051-8.198c-13.752,0-26.184,4.761-34.646,13.224     c-8.463,8.463-15.604,12.695-17.455,15.34c-1.85,2.645-5.289,3.438,3.439,10.314c8.727,6.877,8.992,8.992,11.637,8.992     c2.645,0,84.631-10.05,86.746-14.281C780.357,299.848,770.57,278.69,770.57,278.69z" data-index="147"></path>
			
			<path style="fill: none; stroke: rgb(49, 36, 28); stroke-width: 1.5; stroke-linecap: round; stroke-linejoin: round; stroke-miterlimit: 10; visibility: hidden;" d="     M703.264,279.219c0.529,0.396,1.189,0.926,1.586,1.587" data-index="149"></path>
			
			<path style="fill: none; stroke: rgb(49, 36, 28); stroke-width: 1.5; stroke-linecap: round; stroke-linejoin: round; stroke-miterlimit: 10; opacity: 1;" d="     M722.965,276.441c0.396-0.264,0.795-0.66,1.192-1.057" data-index="151"></path>
			
			<path style="fill: none; stroke: rgb(49, 36, 28); stroke-width: 1.5; stroke-linecap: round; stroke-linejoin: round; stroke-miterlimit: 10; opacity: 0.5; visibility: hidden;" d="     M710.32,246.064c0.883,6.348,0.705,12.52,2.117,13.225c1.41,0.704,16.574-0.882,18.69-2.115     c2.115-1.235,14.635-16.222,14.986-17.455c0.354-1.235-13.223-8.111-13.223-8.111" data-index="153"></path>
			
			<path style="fill: rgb(148, 228, 172); opacity: 1; stroke: rgb(148, 228, 172); visibility: hidden;" d="M687.881,310.252c-8.111,4.23-11.107,4.938-13.049,5.465c-5.867,1.596-8.287,4.231-5.818,11.988     c2.469,7.759,1.588,8.464-4.76,14.81c-6.348,6.348-11.285,12.166-10.402,13.224c0.883,1.059,21.688,10.756,32.617,2.646     c10.932-8.111,85.336-27.857,87.1-33.147c1.764-5.289-2.467-22.216-5.113-22.568C765.81,302.316,723.143,288.565,687.881,310.252     z" data-index="155"></path>
			
			<path style="fill: none; stroke: rgb(49, 36, 28); stroke-width: 1.5; stroke-linecap: round; stroke-linejoin: round; stroke-miterlimit: 10; visibility: hidden; opacity: 1;" d="     M712.256,286.228c0.396-0.396,0.924-0.794,1.32-1.058" data-index="157"></path>
			
			<path style="fill: rgb(196, 100, 20); opacity: 1; stroke: rgb(196, 100, 20); visibility: hidden;" d="M715.478,368.119c-6.166,3.858-21.195,13.384-23.141,15.931     c5.56,7.357,18.902,11.765,23.934,14.523c8.615-2.591,24.414-15.093,29.797-17.737     C751.453,378.191,720.303,368.296,715.478,368.119z" data-index="159"></path>
			
			<path style="fill: none; stroke: rgb(49, 36, 28); stroke-width: 1.5; stroke-linecap: round; stroke-linejoin: round; stroke-miterlimit: 10; opacity: 1; visibility: hidden;" d="     M717.188,387.614c-2.408-0.653-4.779,4.132-2.678,5.331C716.611,394.145,719.922,388.352,717.188,387.614z" data-index="161"></path>
			
			<path style="fill: none; stroke: rgb(49, 36, 28); stroke-width: 1.5; stroke-linecap: round; stroke-linejoin: round; stroke-miterlimit: 10; opacity: 1; visibility: hidden;" d="     M702.162,340.754c5.289-3.174,16.396-7.583,23.803-1.059c7.404,6.523,19.041,28.915,29.268,31.913     c10.227,2.999,19.924-0.704,19.924-0.704" data-index="163"></path>
			
		</g>
	</g>
</g>
</svg>